<?xml version="1.0" encoding="UTF-8"?>
<svg id="Layer_2" data-name="Layer 2" xmlns="http://www.w3.org/2000/svg" viewBox="0 0 1426.89 488.15">
  <defs>
    <style>
      .cls-1 {
        fill: #0fa;
      }

      .cls-1, .cls-2, .cls-3 {
        stroke-width: 0px;
      }

      .cls-2 {
        fill: #fff;
      }

      .cls-3 {
        fill: #00bb7d;
      }
    </style>
  </defs>
  <g id="Layer_1-2" data-name="Layer 1">
    <g>
      <g>
        <path class="cls-2" d="m531.01,174.76c0,24.45-18.34,39.65-47.64,39.65h-22.1v30.25h-25.39v-109.71h47.49c29.31,0,47.64,15.2,47.64,39.81Zm-25.7,0c0-12.07-7.84-19.12-23.35-19.12h-20.69v38.09h20.69c15.52,0,23.35-7.05,23.35-18.96Z"/>
        <path class="cls-2" d="m532.43,134.95c0-7.68,6.11-13.63,15.2-13.63s15.2,5.64,15.2,13.16c0,8.15-6.11,14.11-15.2,14.11s-15.2-5.96-15.2-13.64Zm2.98,25.39h24.45v84.32h-24.45v-84.32Z"/>
        <path class="cls-2" d="m624.92,244.66l-18.49-25.86-19.12,25.86h-26.64l32.44-42.47-31.35-41.85h27.43l17.87,24.61,18.34-24.61h26.02l-31.35,41.22,32.6,43.1h-27.74Z"/>
        <path class="cls-2" d="m732.4,209.4h-63.79c2.35,10.5,11.28,16.93,24.14,16.93,8.94,0,15.36-2.67,21.16-8.15l13.01,14.11c-7.84,8.93-19.59,13.63-34.8,13.63-29.15,0-48.11-18.34-48.11-43.41s19.28-43.41,44.98-43.41,43.88,16.61,43.88,43.73c0,1.88-.31,4.54-.47,6.58Zm-64.1-14.26h41.53c-1.72-10.66-9.72-17.55-20.69-17.55s-19.12,6.74-20.84,17.55Z"/>
        <path class="cls-2" d="m738.33,128.37h24.45v116.29h-24.45v-116.29Z"/>
        <path class="cls-2" d="m871.33,174.76c0,24.45-18.34,39.65-47.64,39.65h-22.1v30.25h-25.39v-109.71h47.49c29.31,0,47.64,15.2,47.64,39.81Zm-25.7,0c0-12.07-7.84-19.12-23.35-19.12h-20.69v38.09h20.69c15.52,0,23.35-7.05,23.35-18.96Z"/>
        <path class="cls-2" d="m928.77,159.08v22.57c-2.04-.16-3.6-.31-5.49-.31-13.48,0-22.41,7.37-22.41,23.51v39.81h-24.45v-84.32h23.35v11.13c5.96-8.15,15.99-12.38,28.99-12.38Z"/>
        <path class="cls-2" d="m1014.52,209.4h-63.79c2.35,10.5,11.28,16.93,24.14,16.93,8.93,0,15.36-2.67,21.16-8.15l13.01,14.11c-7.84,8.93-19.59,13.63-34.8,13.63-29.15,0-48.11-18.34-48.11-43.41s19.28-43.41,44.98-43.41,43.88,16.61,43.88,43.73c0,1.88-.31,4.54-.47,6.58Zm-64.1-14.26h41.53c-1.72-10.66-9.72-17.55-20.69-17.55s-19.12,6.74-20.84,17.55Z"/>
        <path class="cls-2" d="m1015.04,202.5c0-25.39,19.59-43.41,47.02-43.41,17.71,0,31.66,7.68,37.77,21.47l-18.96,10.19c-4.54-7.99-11.28-11.6-18.96-11.6-12.38,0-22.1,8.62-22.1,23.35s9.72,23.35,22.1,23.35c7.68,0,14.42-3.45,18.96-11.6l18.96,10.35c-6.11,13.48-20.06,21.31-37.77,21.31-27.43,0-47.02-18.02-47.02-43.41Z"/>
        <path class="cls-2" d="m1100.42,134.95c0-7.68,6.11-13.63,15.2-13.63s15.2,5.64,15.2,13.16c0,8.15-6.11,14.11-15.2,14.11s-15.2-5.96-15.2-13.64Zm2.98,25.39h24.45v84.32h-24.45v-84.32Z"/>
        <path class="cls-2" d="m1132.17,236.82l8.15-17.56c7.52,4.86,18.96,8.15,29.31,8.15,11.28,0,15.52-2.98,15.52-7.68,0-13.79-50.94.31-50.94-33.38,0-15.98,14.42-27.27,39.03-27.27,11.6,0,24.45,2.67,32.45,7.37l-8.15,17.4c-8.31-4.7-16.61-6.27-24.29-6.27-10.97,0-15.67,3.45-15.67,7.84,0,14.42,50.94.47,50.94,33.7,0,15.67-14.58,26.8-39.81,26.8-14.26,0-28.68-3.92-36.52-9.09Z"/>
        <path class="cls-2" d="m1210.24,134.95c0-7.68,6.11-13.63,15.2-13.63s15.2,5.64,15.2,13.16c0,8.15-6.11,14.11-15.2,14.11s-15.2-5.96-15.2-13.64Zm2.98,25.39h24.45v84.32h-24.45v-84.32Z"/>
        <path class="cls-2" d="m1242.52,202.5c0-25.39,19.59-43.41,46.39-43.41s46.24,18.03,46.24,43.41-19.43,43.41-46.24,43.41-46.39-18.02-46.39-43.41Zm67.86,0c0-14.58-9.25-23.35-21.47-23.35s-21.63,8.78-21.63,23.35,9.4,23.35,21.63,23.35,21.47-8.78,21.47-23.35Z"/>
        <path class="cls-2" d="m1426.89,196.39v48.27h-24.45v-44.51c0-13.63-6.27-19.91-17.08-19.91-11.75,0-20.22,7.21-20.22,22.73v41.69h-24.45v-84.32h23.35v9.87c6.58-7.21,16.46-11.13,27.9-11.13,19.91,0,34.95,11.6,34.95,37.3Z"/>
      </g>
      <g>
        <path class="cls-2" d="m704.26,363.93l3.04-5.98c5.24,5.14,14.59,8.92,24.25,8.92,13.75,0,19.73-5.77,19.73-13.01,0-20.15-45.24-7.77-45.24-34.95,0-10.81,8.4-20.15,27.08-20.15,8.29,0,16.9,2.41,22.78,6.51l-2.62,6.19c-6.3-4.1-13.64-6.09-20.15-6.09-13.44,0-19.42,5.98-19.42,13.33,0,20.15,45.24,7.98,45.24,34.74,0,10.81-8.61,20.05-27.39,20.05-11.03,0-21.83-3.88-27.29-9.55Z"/>
        <path class="cls-2" d="m789.03,306.1h-25.82v-6.72h59.41v6.72h-25.82v66.76h-7.77v-66.76Z"/>
        <path class="cls-2" d="m831.64,341.47v-42.09h7.77v41.78c0,17.42,8.18,25.4,22.46,25.4s22.57-7.98,22.57-25.4v-41.78h7.56v42.09c0,21.1-11.33,32.01-30.12,32.01s-30.23-10.92-30.23-32.01Z"/>
        <path class="cls-2" d="m911.3,299.38h29.91c23.51,0,39.36,15.12,39.36,36.74s-15.85,36.74-39.36,36.74h-29.91v-73.48Zm29.5,66.76c19.52,0,32.12-12.39,32.12-30.02s-12.59-30.02-32.12-30.02h-21.73v60.04h21.73Z"/>
        <path class="cls-2" d="m995.06,299.38h7.77v73.48h-7.77v-73.48Z"/>
        <path class="cls-2" d="m1017.09,336.12c0-21.41,16.38-37.37,38.63-37.37s38.53,15.85,38.53,37.37-16.48,37.37-38.53,37.37-38.63-15.95-38.63-37.37Zm69.38,0c0-17.53-13.12-30.44-30.76-30.44s-30.96,12.91-30.96,30.44,13.22,30.44,30.96,30.44,30.76-12.91,30.76-30.44Z"/>
        <path class="cls-2" d="m1101.64,363.93l3.04-5.98c5.24,5.14,14.59,8.92,24.25,8.92,13.75,0,19.73-5.77,19.73-13.01,0-20.15-45.24-7.77-45.24-34.95,0-10.81,8.4-20.15,27.08-20.15,8.29,0,16.9,2.41,22.78,6.51l-2.62,6.19c-6.3-4.1-13.64-6.09-20.15-6.09-13.44,0-19.42,5.98-19.42,13.33,0,20.15,45.24,7.98,45.24,34.74,0,10.81-8.61,20.05-27.39,20.05-11.03,0-21.83-3.88-27.29-9.55Z"/>
      </g>
      <g>
        <polygon class="cls-1" points="165.29 358.66 251.16 358.66 359.77 119.97 276.42 119.97 165.29 358.66"/>
        <polygon class="cls-3" points="162.76 0 276.42 119.97 359.77 119.97 162.76 0"/>
        <polygon class="cls-1" points="194.48 129.5 108.61 129.5 0 368.18 83.35 368.18 194.48 129.5"/>
        <polygon class="cls-3" points="197.01 488.15 83.35 368.18 0 368.18 197.01 488.15"/>
      </g>
    </g>
  </g>
</svg>